HIERARCHY
ROOT Hips
{
	OFFSET 0.000000 0.000000 0.000000
	CHANNELS 6 Xposition Yposition Zposition Zrotation Yrotation Xrotation 
	JOINT LHipJoint
	{
		OFFSET 0.000000 0.000000 0.000000
		CHANNELS 3 Zrotation Yrotation Xrotation
		JOINT LeftUpLeg
		{
			OFFSET 1.363060 -1.794630 0.839290
			CHANNELS 3 Zrotation Yrotation Xrotation
			JOINT LeftLeg
			{
				OFFSET 2.448110 -6.726130 0.000000
				CHANNELS 3 Zrotation Yrotation Xrotation
				JOINT LeftFoot
				{
					OFFSET 2.562200 -7.039590 0.000000
					CHANNELS 3 Zrotation Yrotation Xrotation
					JOINT LeftToeBase
					{
						OFFSET 0.157640 -0.433110 2.322550
						CHANNELS 3 Zrotation Yrotation Xrotation
						End Site
						{
							OFFSET 0.000000 0.000000 0.000000
						}
					}
				}
			}
		}
	}
	JOINT RHipJoint
	{
		OFFSET 0.000000 0.000000 0.000000
		CHANNELS 3 Zrotation Yrotation Xrotation
		JOINT RightUpLeg
		{
			OFFSET -1.305520 -1.794630 0.839290
			CHANNELS 3 Zrotation Yrotation Xrotation
			JOINT RightLeg
			{
				OFFSET -2.542530 -6.985550 0.000000
				CHANNELS 3 Zrotation Yrotation Xrotation
				JOINT RightFoot
				{
					OFFSET -2.568260 -7.056230 0.000000
					CHANNELS 3 Zrotation Yrotation Xrotation
					JOINT RightToeBase
					{
						OFFSET -0.164730 -0.452590 2.363150
						CHANNELS 3 Zrotation Yrotation Xrotation
						End Site
						{
							OFFSET 0.000000 0.000000 0.000000
						}
					}
				}
			}
		}
	}
	JOINT LowerBack
	{
		OFFSET 0.000000 0.000000 0.000000
		CHANNELS 3 Zrotation Yrotation Xrotation
		JOINT Spine
		{
			OFFSET 0.028270 2.035590 -0.193380
			CHANNELS 3 Zrotation Yrotation Xrotation
			JOINT Spine1
			{
				OFFSET 0.056720 2.048850 -0.042750
				CHANNELS 3 Zrotation Yrotation Xrotation
				JOINT Neck
				{
					OFFSET 0.000000 0.000000 0.000000
					CHANNELS 3 Zrotation Yrotation Xrotation
					JOINT Neck1
					{
						OFFSET -0.054170 1.746240 0.172020
						CHANNELS 3 Zrotation Yrotation Xrotation
						JOINT Head
						{
							OFFSET 0.104070 1.761360 -0.123970
							CHANNELS 3 Zrotation Yrotation Xrotation
							End Site
							{
								OFFSET 0.000000 0.000000 0.000000
							}
						}
					}
				}
				JOINT LeftShoulder
				{
					OFFSET 0.000000 0.000000 0.000000
					CHANNELS 3 Zrotation Yrotation Xrotation
					JOINT LeftArm
					{
						OFFSET 3.362410 1.200890 -0.311210
						CHANNELS 3 Zrotation Yrotation Xrotation
						JOINT LeftForeArm
						{
							OFFSET 4.983000 -0.000000 -0.000000
							CHANNELS 3 Zrotation Yrotation Xrotation
							JOINT LeftHand
							{
								OFFSET 3.483560 -0.000000 -0.000000
								CHANNELS 3 Zrotation Yrotation Xrotation
								JOINT LeftFingerBase
								{
									OFFSET 0.000000 0.000000 0.000000
									CHANNELS 3 Zrotation Yrotation Xrotation
									JOINT LeftHandIndex1
									{
										OFFSET 0.715260 -0.000000 -0.000000
										CHANNELS 3 Zrotation Yrotation Xrotation
										End Site
										{
											OFFSET 0.000000 0.000000 0.000000
										}
									}
								}
								JOINT LThumb
								{
									OFFSET 0.000000 0.000000 0.000000
									CHANNELS 3 Zrotation Yrotation Xrotation
									End Site
									{
										OFFSET 0.000000 0.000000 0.000000
									}
								}
							}
						}
					}
				}
				JOINT RightShoulder
				{
					OFFSET 0.000000 0.000000 0.000000
					CHANNELS 3 Zrotation Yrotation Xrotation
					JOINT RightArm
					{
						OFFSET -3.136600 1.374050 -0.404650
						CHANNELS 3 Zrotation Yrotation Xrotation
						JOINT RightForeArm
						{
							OFFSET -5.241900 -0.000000 -0.000000
							CHANNELS 3 Zrotation Yrotation Xrotation
							JOINT RightHand
							{
								OFFSET -3.444170 -0.000000 -0.000000
								CHANNELS 3 Zrotation Yrotation Xrotation
								JOINT RightFingerBase
								{
									OFFSET 0.000000 0.000000 0.000000
									CHANNELS 3 Zrotation Yrotation Xrotation
									JOINT RightHandIndex1
									{
										OFFSET -0.622530 -0.000000 -0.000000
										CHANNELS 3 Zrotation Yrotation Xrotation
										End Site
										{
											OFFSET 0.000000 0.000000 0.000000
										}
									}
								}
								JOINT RThumb
								{
									OFFSET 0.000000 0.000000 0.000000
									CHANNELS 3 Zrotation Yrotation Xrotation
									End Site
									{
										OFFSET 0.000000 0.000000 0.000000
									}
								}
							}
						}
					}
				}
			}
		}
	}
}
MOTION
Frames: 5
Frame Time: 0.008333
9.990829 13.608715 34.797982 -178.247651 1.250309 -119.195394 11.283022 2.083117 -3.724275 -0.241911 -18.477773 -102.915872 19.313248 26.246312 89.875092 3.465603 -14.531642 -40.105709 2.631400 -10.073100 -29.213700 -13.501162 -3.605350 -1.060279 0.732754 29.026473 -103.180596 -17.241442 -27.730233 84.749065 -6.615981 3.120459 -47.368300 -3.572700 11.569000 -34.223800 -1.189754 0.249771 3.646769 1.239651 0.184632 -4.706088 -0.830580 0.299084 1.990076 -6.051280 -4.512002 -3.087938 11.100554 -6.220491 -12.787277 1.594300 -3.051800 -6.413900 16.836019 -0.261366 0.425760 -103.212146 17.624093 28.801355 11.749369 -14.742910 -2.040677 -2.652275 1.033477 2.168394 27.540158 -14.278887 -8.564800 -7.125000 0.000000 0.000000 1.768100 12.774300 -1.334000 -10.891170 -2.193833 -0.247715 98.421425 -16.328433 8.281084 -7.053308 14.916083 -1.229991 1.207030 4.070068 7.992859 -11.334360 -46.670915 9.333200 7.125000 0.000000 0.000000 58.877000 -74.920700 -44.775900 
9.994560 13.532231 34.717548 -178.340602 1.243916 -119.380615 11.278228 2.088165 -3.705118 -0.227406 -18.646928 -102.948446 19.740861 26.247956 91.000214 3.458232 -14.923177 -40.180221 2.577800 -9.978000 -28.905400 -13.504311 -3.588249 -1.048162 0.831368 29.026660 -102.996217 -17.631706 -27.758691 85.694378 -6.737081 3.227292 -47.694576 -3.722400 11.781600 -34.963600 -1.349678 0.217834 4.070720 1.250666 0.142125 -4.792522 -0.803088 0.282456 1.417818 -5.893626 -4.757206 -2.378946 11.120990 -6.781801 -12.795428 1.605500 -3.373200 -6.555500 16.724328 -0.552524 0.376276 -103.181095 15.750372 28.407608 11.709513 -14.475034 -2.000062 -2.631965 1.100953 3.264647 27.689907 -13.972116 -8.460500 -7.125000 0.000000 0.000000 1.900400 13.068500 -1.422300 -10.854352 -1.997942 -0.275129 98.253157 -14.515490 10.197177 -7.196709 15.002573 -1.296713 1.239170 4.041266 6.843158 -12.371694 -46.085957 10.151400 7.125000 0.000000 0.000000 55.891700 -75.071400 -42.362000 
9.997194 13.461673 34.634151 -178.286997 1.243570 -119.496817 11.271164 2.097617 -3.697740 -0.133206 -18.676007 -102.965153 20.162495 26.232978 92.109932 3.459874 -15.334111 -40.298177 2.513600 -9.862600 -28.533000 -13.511769 -3.580298 -1.043442 0.934554 29.169119 -102.965613 -17.957341 -27.780382 86.503944 -6.735130 3.221514 -47.602835 -3.719200 11.777000 -34.947800 -1.411659 0.186689 4.205261 1.288918 0.104444 -4.822657 -0.758849 0.252349 1.257387 -6.165471 -3.930344 -2.761698 11.416332 -5.436139 -13.164807 1.711300 -2.709900 -6.540800 16.600735 -0.862199 0.335257 -103.340465 13.373674 28.087773 11.641076 -14.119662 -1.932345 -2.703545 1.160433 3.567677 28.503110 -13.848163 -8.709900 -7.125000 0.000000 0.000000 2.508000 13.026500 -1.880000 -10.789400 -1.759742 -0.310286 97.895819 -12.135147 12.511441 -7.289285 14.990731 -1.343055 1.205912 4.066937 5.633740 -12.550925 -46.188714 10.344500 7.125000 0.000000 0.000000 56.056300 -75.203600 -42.635500 
9.999279 13.401979 34.551851 -178.229927 1.306002 -119.458857 11.265931 2.110343 -3.686018 -0.047725 -18.696196 -102.993484 20.566239 26.210492 93.176481 3.480400 -15.797027 -40.510234 2.474600 -9.791600 -28.304300 -13.515169 -3.572804 -1.037372 0.997699 29.290958 -103.018746 -18.265601 -27.789504 87.237752 -6.878522 3.825200 -47.882550 -3.889200 12.011500 -35.772700 -1.517250 0.177519 4.180029 1.310579 0.097807 -4.868194 -0.735571 0.233742 1.117529 -6.149294 -4.134786 -2.768000 11.504600 -5.763133 -13.052869 1.720200 -2.881300 -6.481100 16.469953 -1.168128 0.278362 -103.456602 10.806790 27.876464 11.551030 -13.721660 -1.856433 -2.798167 1.222151 3.638301 29.480224 -13.766496 -9.054300 -7.125000 0.000000 0.000000 3.231100 12.891400 -2.432800 -10.719687 -1.493803 -0.350670 97.620427 -9.355681 14.037764 -7.169690 14.628748 -1.318245 1.188448 4.084602 5.403279 -12.035995 -46.380432 9.965100 7.125000 0.000000 0.000000 57.115500 -75.097500 -43.436800 
10.000047 13.348978 34.473612 -178.145564 1.408113 -119.207252 11.264705 2.132290 -3.673794 0.084790 -18.668711 -103.181473 20.932210 26.178398 94.147853 3.487142 -16.252607 -40.677098 2.492500 -9.824200 -28.409400 -13.504320 -3.589796 -1.027146 0.813868 29.460007 -103.450991 -18.827678 -27.818249 88.624640 -6.977333 3.224651 -48.290895 -4.143900 12.349400 -36.979600 -1.603384 0.208195 3.859753 1.291112 0.143790 -4.942747 -0.856696 0.244198 1.029187 -5.734788 -4.108235 -2.770265 11.328759 -5.668464 -13.411638 1.562500 -2.859200 -6.641300 16.380500 -1.521441 0.221525 -103.339293 8.166109 27.640767 11.494922 -13.395021 -1.803940 -2.848188 1.305786 4.190302 30.231665 -13.646693 -9.295400 -7.125000 0.000000 0.000000 3.784300 12.830800 -2.855800 -10.653337 -1.228349 -0.377463 97.583097 -6.381032 14.886772 -6.918815 14.080107 -1.267521 1.281313 4.126586 6.146853 -12.154237 -47.269796 10.214200 7.125000 0.000000 0.000000 60.331000 -75.552700 -46.702600 
